<?xml version="1.0" standalone="no"?><!DOCTYPE svg PUBLIC "-//W3C//DTD SVG 1.1//EN" "http://www.w3.org/Graphics/SVG/1.1/DTD/svg11.dtd"><svg t="1655535287048" class="icon" viewBox="0 0 1024 1024" version="1.1" xmlns="http://www.w3.org/2000/svg" p-id="7387" xmlns:xlink="http://www.w3.org/1999/xlink" width="24" height="24"><defs><style type="text/css">@font-face { font-family: feedback-iconfont; src: url("//at.alicdn.com/t/font_1031158_u69w8yhxdu.woff2?t=1630033759944") format("woff2"), url("//at.alicdn.com/t/font_1031158_u69w8yhxdu.woff?t=1630033759944") format("woff"), url("//at.alicdn.com/t/font_1031158_u69w8yhxdu.ttf?t=1630033759944") format("truetype"); }
</style></defs><path d="M512.46464 192a320.170667 320.170667 0 0 0-302.250667 214.570667 64 64 0 1 1-120.832-42.197334C150.35264 189.568 316.62464 64 512.46464 64c152.618667 0 287.274667 76.288 368.170667 192.682667l18.517333-61.738667a64 64 0 1 1 122.624 36.778667l-64 213.333333a64 64 0 0 1-73.856 44.373333l-213.333333-42.666666a64 64 0 0 1 25.088-125.525334l85.632 17.152A319.786667 319.786667 0 0 0 512.46464 192zM243.579307 685.653333l85.674666 17.066667a64 64 0 0 0 25.088-125.44l-213.333333-42.666667a64 64 0 0 0-73.813333 44.330667l-64 213.333333a64 64 0 1 0 122.581333 36.778667l18.517333-61.781333A447.445333 447.445333 0 0 0 512.46464 960c195.157333 0 361.002667-124.757333 422.485333-298.666667a64 64 0 0 0-120.704-42.666666 320.170667 320.170667 0 0 1-570.666666 66.986666z" p-id="7388"></path></svg>